<svg version="1" xmlns="http://www.w3.org/2000/svg" width="573.333" height="573.333" viewBox="0 0 430.000000 430.000000"><path d="M197.7 30.1c-36.7 3-73.8 18.3-102.6 42.4-83 69.2-90.5 191.1-16.7 269.3 44.2 46.8 107.9 67.5 169.6 55.1 29.5-5.9 58.5-19.9 81.9-39.4 83-69.2 90.5-191.1 16.7-269.3-32.2-34.1-74.4-54.4-121.1-58.2-13.2-1.1-13.8-1.1-27.8.1zm44 40.8c61.9 12.7 108.5 63 116.3 125.5.8 6.2 1.1 15.2.7 24.5-3 73.4-60.4 133.1-133.7 139-67.2 5.5-129.7-35.8-150.8-99.4-5.7-17.1-6.7-24.1-6.7-46 0-22.3 1-29.2 7-47.2 17.4-52.3 64.3-90.7 120-98.2 11.1-1.5 35.5-.6 47.2 1.8z"/><path d="M229.5 109.6c-9.2 4.8-23.1 17.9-47.1 44.5-16.9 18.8-28.8 34.5-32.1 42.4-2 4.7-2.3 6.8-1.8 10.4 2.1 13.9 11.2 45.3 20.5 70.1 9.8 26.3 15.6 38.5 20 42.5 1.9 1.7 2.1 1.7 5.8-.7 18.2-12.1 72.4-70.3 80.7-86.7 3.4-6.7 2-15.6-8.1-49.8-7.1-24.4-15.5-46.4-24.1-63.8-5.5-11-7.4-12.3-13.8-8.9zm4.7 29.1c13.4 14.1 24.8 42.8 25.1 63.3.2 7.3-.2 9.1-2.2 12.6-3.5 6.1-8.8 8.7-17.5 8.7-7.2-.1-17.8-2.1-25.2-4.8-5.8-2.2-6.8-5.1-6.1-17.3.8-13.8 9.5-47 16.4-62.5 1.4-3.1 2.9-5.7 3.3-5.7.4 0 3.2 2.6 6.2 5.7z"/></svg>